<svg width="24" height="24" viewBox="0 0 24 24" fill="none" xmlns="http://www.w3.org/2000/svg">
<path d="M8.18291 21.0001C8.56682 21.0001 8.87804 20.6889 8.87804 20.305C8.87804 19.9211 8.56682 19.6099 8.18291 19.6099C7.79901 19.6099 7.48779 19.9211 7.48779 20.305C7.48779 20.6889 7.79901 21.0001 8.18291 21.0001Z" fill="#444444" stroke="#444444" stroke-width="2" stroke-linecap="round" stroke-linejoin="round"/>
<path d="M17.451 21.0001C17.8349 21.0001 18.1461 20.6889 18.1461 20.305C18.1461 19.9211 17.8349 19.6099 17.451 19.6099C17.0671 19.6099 16.7559 19.9211 16.7559 20.305C16.7559 20.6889 17.0671 21.0001 17.451 21.0001Z" fill="#444444" stroke="#444444" stroke-width="2" stroke-linecap="round" stroke-linejoin="round"/>
<path d="M1 2H2.9608C3.43743 2 3.84782 2.33639 3.94136 2.80374L6.26439 14.4102C6.34914 14.837 6.58128 15.2203 6.92016 15.4931C7.25905 15.7659 7.68309 15.9108 8.11805 15.9024H17.1268C17.5618 15.9108 17.9858 15.7659 18.3247 15.4931C18.6636 15.2203 18.8957 14.837 18.9805 14.4102L20.237 7.82147C20.3545 7.20518 19.8821 6.63415 19.2547 6.63415H4.70732" stroke="#444444" stroke-width="1.5" stroke-linecap="round" stroke-linejoin="round"/>
<path d="M9 12.5H11.773" stroke="#444444" stroke-width="1.5" stroke-linecap="round" stroke-linejoin="round"/>
</svg>
