<svg width="32" height="32" viewBox="0 0 32 32" fill="none" xmlns="http://www.w3.org/2000/svg">
<path d="M26.6417 17.6592L24.5724 15.5669H19.4295V25.1002C19.4295 26.0575 20.197 26.8336 21.1438 26.8336V27.7002H27.1438V18.8849C27.1438 18.4252 26.9632 17.9842 26.6417 17.6592Z" fill="#F0915A"/>
<path d="M17.7151 26.4002H4.858C4.38459 26.4002 4.00085 26.0122 4.00085 25.5336V9.93356C4.00085 9.45489 4.38459 9.06689 4.858 9.06689H17.7151C18.1886 9.06689 18.5723 9.45489 18.5723 9.93356V25.5336C18.5723 26.0122 18.1886 26.4002 17.7151 26.4002Z" fill="#E64178"/>
<path d="M15.1437 26.4002H4.858C4.38459 26.4002 4.00085 26.0122 4.00085 25.5336V9.93356C4.00085 9.45489 4.38459 9.06689 4.858 9.06689H15.1437C15.6171 9.06689 16.0009 9.45489 16.0009 9.93356V25.5336C16.0009 26.0122 15.6171 26.4002 15.1437 26.4002Z" fill="#FF6E91"/>
<path d="M13.4295 13.3998H6.57235C6.09894 13.3998 5.71521 13.0118 5.71521 12.5331V11.6665C5.71521 11.1878 6.09894 10.7998 6.57235 10.7998H13.4295C13.9029 10.7998 14.2866 11.1878 14.2866 11.6665V12.5331C14.2866 13.0118 13.9029 13.3998 13.4295 13.3998Z" fill="#E64178"/>
<path d="M24.5723 10.7998H18.5723C18.0989 10.7998 17.7152 11.1878 17.7152 11.6665V23.7998C17.7152 24.2785 18.0989 24.6665 18.5723 24.6665H24.5723C25.0457 24.6665 25.4295 24.2785 25.4295 23.7998V11.6665C25.4295 11.1878 25.0457 10.7998 24.5723 10.7998Z" fill="#78AF41"/>
<path d="M22.8581 11.6665H20.2866C20.05 11.6665 19.8581 11.8605 19.8581 12.0998C19.8581 12.5785 19.4743 12.9665 19.0009 12.9665C18.7643 12.9665 18.5724 13.1605 18.5724 13.3998V22.0665C18.5724 22.3058 18.7643 22.4998 19.0009 22.4998C19.4743 22.4998 19.8581 22.8878 19.8581 23.3665C19.8581 23.6058 20.05 23.7998 20.2866 23.7998H22.8581C23.0947 23.7998 23.2866 23.6058 23.2866 23.3665C23.2866 22.8878 23.6704 22.4998 24.1438 22.4998C24.3805 22.4998 24.5724 22.3058 24.5724 22.0665V13.3998C24.5724 13.1605 24.3805 12.9665 24.1438 12.9665C23.6704 12.9665 23.2866 12.5785 23.2866 12.0998C23.2866 11.8605 23.0947 11.6665 22.8581 11.6665Z" fill="#466932"/>
<path d="M21.5724 19.7552C22.7558 19.7552 23.7152 18.7852 23.7152 17.5885C23.7152 16.3919 22.7558 15.4219 21.5724 15.4219C20.3889 15.4219 19.4295 16.3919 19.4295 17.5885C19.4295 18.7852 20.3889 19.7552 21.5724 19.7552Z" fill="#78AF41"/>
<path d="M7.42953 12.5331C6.95612 12.5331 6.57239 12.1451 6.57239 11.6665V10.7998H8.28667V11.6665C8.28667 12.1451 7.90294 12.5331 7.42953 12.5331Z" fill="#F0915A"/>
<path d="M9.14389 12.5331C8.67048 12.5331 8.28674 12.1451 8.28674 11.6665V10.7998H10.001V11.6665C10.001 12.1451 9.6173 12.5331 9.14389 12.5331Z" fill="#F0915A"/>
<path d="M10.8578 12.5331C10.3843 12.5331 10.0006 12.1451 10.0006 11.6665V10.7998H11.7149V11.6665C11.7149 12.1451 11.3312 12.5331 10.8578 12.5331Z" fill="#F0915A"/>
<path d="M12.5721 12.5331C12.0987 12.5331 11.7149 12.1451 11.7149 11.6665V10.7998H13.4292V11.6665C13.4292 12.1451 13.0455 12.5331 12.5721 12.5331Z" fill="#F0915A"/>
<path d="M7.42953 4.2998V5.5998C6.95617 5.5998 6.57239 5.98785 6.57239 6.46647V10.7998H13.4295V4.2998H7.42953Z" fill="#FAB991"/>
<path d="M13.4294 4.2998H10.4294C10.4294 5.01778 11.0051 5.5998 11.7152 5.5998H13.4294V4.2998Z" fill="#F0915A"/>
<path d="M15.1436 9.06676H13.4293V5.6001C14.3761 5.6001 15.1436 6.37614 15.1436 7.33343V9.06676Z" fill="#F0915A"/>
<path d="M13.4295 4.3H7.42953C6.95612 4.3 6.57239 3.912 6.57239 3.43333V3H14.2867V3.43333C14.2867 3.912 13.9029 4.3 13.4295 4.3Z" fill="#555A6E"/>
<path d="M13.4294 4.3H10.4294V3H14.2866V3.43333C14.2866 3.912 13.9029 4.3 13.4294 4.3Z" fill="#463C4B"/>
<path d="M27.1439 27.7002H21.1439C20.6704 27.7002 20.2867 28.0882 20.2867 28.5669V29.0002H28.001V28.5669C28.001 28.0882 27.6173 27.7002 27.1439 27.7002Z" fill="#555A6E"/>
<path d="M27.1437 27.7002H24.1437V29.0002H28.0009V28.5669C28.0009 28.0882 27.6172 27.7002 27.1437 27.7002Z" fill="#463C4B"/>
<path d="M24.75 18.7792C24.4153 18.4408 23.8725 18.4408 23.5378 18.7792L23.4989 18.8185C22.8295 19.4955 22.8295 20.5929 23.4989 21.2699L24.1439 21.922V23.7998C24.1439 25.475 25.487 26.8331 27.1439 26.8331V21.1998L24.75 18.7792Z" fill="#FAB991"/>
<path d="M24.8584 18.8892L24.7502 18.9986C24.4155 19.337 24.4155 19.8858 24.7502 20.2242L24.8411 20.3161C25.0084 20.4853 25.2798 20.4853 25.4472 20.3161L25.8584 19.9003L24.8584 18.8892Z" fill="#F0915A"/>
</svg>
