<svg width="20" height="20" viewBox="0 0 20 20" fill="none" xmlns="http://www.w3.org/2000/svg">
<g opacity="0.4">
<path d="M9.99175 1.66748C5.39175 1.66748 1.66675 5.40081 1.66675 10.0008C1.66675 14.6008 5.39175 18.3341 9.99175 18.3341C14.6001 18.3341 18.3334 14.6008 18.3334 10.0008C18.3334 5.40081 14.6001 1.66748 9.99175 1.66748ZM10.0001 16.6675C6.31675 16.6675 3.33341 13.6841 3.33341 10.0008C3.33341 6.31748 6.31675 3.33415 10.0001 3.33415C13.6834 3.33415 16.6667 6.31748 16.6667 10.0008C16.6667 13.6841 13.6834 16.6675 10.0001 16.6675Z" fill="black"/>
<path d="M10.4167 5.8335H9.16675V10.8335L13.5417 13.4585L14.1667 12.4335L10.4167 10.2085V5.8335Z" fill="black"/>
</g>
</svg>
