<svg width="32" height="32" viewBox="0 0 32 32" fill="none" xmlns="http://www.w3.org/2000/svg">
<path d="M15.1257 15.3466V19.1422H13.9447V9.76869H17.077C17.4508 9.76074 17.8225 9.82835 18.1706 9.96763C18.5187 10.1069 18.8363 10.3151 19.1051 10.5802C19.3766 10.8292 19.5926 11.1345 19.7388 11.4757C19.8849 11.8169 19.9577 12.1861 19.9523 12.5583C19.9601 12.9326 19.8884 13.3042 19.7422 13.6476C19.5959 13.991 19.3786 14.2981 19.1051 14.5479C18.5575 15.0803 17.8813 15.3463 17.077 15.3458H15.1257V15.3466ZM15.1257 10.9228V14.1948H17.1062C17.3233 14.2014 17.5394 14.1616 17.7406 14.0782C17.9418 13.9947 18.1237 13.8694 18.2747 13.7101C18.4249 13.5612 18.5443 13.3832 18.6258 13.1864C18.7073 12.9897 18.7493 12.7783 18.7493 12.5647C18.7493 12.3511 18.7073 12.1397 18.6258 11.943C18.5443 11.7463 18.4249 11.5682 18.2747 11.4193C18.1256 11.2567 17.9444 11.1283 17.7429 11.0425C17.5415 10.9567 17.3244 10.9156 17.1062 10.9219H15.1257V10.9226V10.9228ZM22.6737 12.5195C23.5466 12.5195 24.2357 12.7573 24.7408 13.2329C25.246 13.7087 25.4983 14.3609 25.4978 15.1896V19.1422H24.3682V18.2522H24.317C23.8278 18.9851 23.1775 19.3516 22.3657 19.3516C21.6727 19.3516 21.093 19.1422 20.6265 18.7234C20.4026 18.5312 20.2236 18.2904 20.1025 18.0187C19.9815 17.747 19.9214 17.4512 19.9267 17.1528C19.9267 16.4892 20.1727 15.9614 20.6646 15.5695C21.1566 15.1776 21.8133 14.9811 22.6348 14.9802C23.3361 14.9802 23.9136 15.1109 24.3675 15.3727V15.0974C24.3688 14.894 24.3257 14.6929 24.2413 14.5086C24.157 14.3243 24.0334 14.1614 23.8797 14.0318C23.5674 13.7445 23.1603 13.5877 22.7397 13.5927C22.0801 13.5927 21.5581 13.8764 21.1737 14.4439L20.1336 13.776C20.7057 12.9383 21.5523 12.5195 22.6737 12.5195ZM21.1458 17.1791C21.1451 17.3323 21.1802 17.4835 21.2483 17.62C21.3164 17.7566 21.4156 17.8746 21.5375 17.9642C21.7987 18.1737 22.1229 18.2847 22.4552 18.2783C22.9535 18.2775 23.4312 18.0753 23.7836 17.716C24.1748 17.3406 24.3703 16.9 24.3703 16.3944C24.0022 16.0952 23.4887 15.9457 22.83 15.9457C22.3502 15.9457 21.9502 16.0636 21.63 16.2994C21.3065 16.5388 21.1458 16.8296 21.1458 17.1789V17.1791ZM31.9822 12.7289L28.0388 21.9693H26.8197L28.2831 18.7361L25.69 12.7289H26.9737L28.8478 17.336H28.8736L30.6963 12.7289H31.9822Z" fill="#5F6368"/>
<path d="M10.353 14.5285C10.3535 14.1615 10.323 13.7953 10.2621 13.4336H5.28125V15.5076H8.134C8.07562 15.8389 7.95206 16.1546 7.77077 16.4359C7.58947 16.7171 7.3542 16.958 7.07912 17.1441V18.4902H8.78162C9.7785 17.5531 10.3529 16.1672 10.3529 14.5285H10.353Z" fill="#4285F4"/>
<path d="M5.28113 19.7908C6.70638 19.7908 7.9065 19.3136 8.78163 18.4909L7.07913 17.1446C6.60513 17.4722 5.99488 17.6593 5.28113 17.6593C3.90363 17.6593 2.73438 16.7123 2.31613 15.4365H0.5625V16.8238C1.00208 17.7157 1.67612 18.4654 2.50938 18.9893C3.34263 19.5132 4.3023 19.7907 5.28125 19.7908H5.28113Z" fill="#34A853"/>
<path d="M2.31638 15.4364C2.09534 14.7678 2.09534 14.0437 2.31638 13.3751V11.9878H0.56238C0.192588 12.7381 0 13.5661 0 14.4058C0 15.2455 0.192588 16.0735 0.56238 16.8238L2.31613 15.4364H2.31638Z" fill="#FBBC04"/>
<path d="M5.28137 11.152C6.03456 11.1395 6.76232 11.4296 7.30737 11.9598L8.81487 10.4227C7.85897 9.50727 6.5926 9.0047 5.28125 9.02038C4.30229 9.02043 3.34261 9.29792 2.50935 9.82186C1.6761 10.3458 1.00206 11.0956 0.5625 11.9874L2.31625 13.3747C2.7345 12.099 3.90375 11.152 5.28125 11.152H5.28137Z" fill="#EA4335"/>
</svg>
