<svg width="64" height="64" viewBox="0 0 64 64" fill="none" xmlns="http://www.w3.org/2000/svg">
<g clip-path="url(#clip0)">
<path d="M47.8783 23.1558H46.3217C46.7988 24.065 47.3918 25.6458 47.3881 27.902C47.3881 31.1779 44.956 33.3555 42.6886 33.7409C40.93 34.0383 33.211 34.0458 32.3991 34.0458H32.3429C32.2631 34.0458 32.1864 34.0141 32.13 33.9576C32.0735 33.9011 32.0417 33.8245 32.0417 33.7446C32.0417 33.6647 32.0735 33.5881 32.13 33.5316C32.1864 33.4752 32.2631 33.4434 32.3429 33.4434C32.429 33.4434 40.8178 33.4434 42.5838 33.146C44.6155 32.8017 46.7782 30.8467 46.782 27.9077C46.782 25.5224 46.071 23.9284 45.6239 23.1632H43.1919C43.5005 24.6599 43.4145 26.121 42.2115 26.8432C38.8646 29.2752 31.6638 28.1527 31.6096 23.1632H17.9619C17.9619 23.1632 18.6971 24.4579 19.3912 27.917C20.0853 31.3762 21.7036 34.3134 22.4519 35.3292H41.4482C46.7969 35.3292 50.8566 29.8589 47.8783 23.1558Z" fill="#FF5252"/>
<path d="M38.5591 7.25318C38.5591 7.25318 33.7548 6.80418 29.624 12.6093C29.624 12.6093 31.1562 14.1958 31.1936 16.1059C31.2142 17.1012 31.2498 18.1638 31.2292 18.871L33.0121 15.859L31.5472 11.4775C31.5311 11.4379 31.5232 11.3955 31.5241 11.3528C31.5249 11.3101 31.5346 11.268 31.5524 11.2291C31.5702 11.1903 31.5957 11.1555 31.6275 11.1269C31.6593 11.0984 31.6965 11.0766 31.7371 11.063C31.7776 11.0494 31.8204 11.0443 31.863 11.0479C31.9056 11.0516 31.9469 11.0639 31.9846 11.0842C32.0222 11.1044 32.0552 11.1322 32.0817 11.1657C32.1082 11.1993 32.1275 11.2379 32.1384 11.2792L33.433 15.1481L35.1168 12.2876L34.4994 9.28676C34.4893 9.2087 34.509 9.1297 34.5546 9.06555C34.6002 9.0014 34.6684 8.95683 34.7454 8.94076C34.8225 8.92469 34.9028 8.93829 34.9702 8.97886C35.0377 9.01942 35.0873 9.08395 35.1093 9.15955L35.5938 11.4925L37.1073 8.93692C37.127 8.89942 37.1542 8.86632 37.1871 8.83964C37.22 8.81296 37.258 8.79324 37.2987 8.7817C37.3395 8.77016 37.3822 8.76702 37.4242 8.77249C37.4662 8.77795 37.5066 8.7919 37.5431 8.81349C37.5795 8.83508 37.6112 8.86386 37.6362 8.89807C37.6612 8.93229 37.6789 8.97123 37.6884 9.01252C37.6979 9.05381 37.6988 9.0966 37.6912 9.13827C37.6836 9.17995 37.6677 9.21965 37.6443 9.25496L35.9998 12.035H38.3626C38.4056 12.0317 38.4487 12.0373 38.4894 12.0514C38.5301 12.0655 38.5674 12.0879 38.599 12.1172C38.6306 12.1464 38.6558 12.1819 38.6731 12.2214C38.6903 12.2608 38.6992 12.3034 38.6992 12.3465C38.6992 12.3896 38.6903 12.4322 38.6731 12.4716C38.6558 12.5111 38.6306 12.5465 38.599 12.5758C38.5674 12.605 38.5301 12.6274 38.4894 12.6416C38.4487 12.6557 38.4056 12.6613 38.3626 12.658H35.6312L33.9625 15.4848L37.4534 14.8974C37.533 14.8882 37.6131 14.91 37.6771 14.9581C37.7411 15.0063 37.7841 15.0772 37.7973 15.1562C37.8105 15.2352 37.7929 15.3163 37.748 15.3827C37.7032 15.449 37.6346 15.4956 37.5563 15.5129L33.5453 16.1864L31.8952 18.9758C32.8082 18.1245 34.8137 16.5886 37.2439 16.8206C40.3757 12.4915 38.5591 7.25318 38.5591 7.25318Z" fill="#86C11F"/>
<path d="M25.3116 11.5996C23.9169 11.5996 22.5793 12.1537 21.593 13.1399C20.6068 14.1261 20.0527 15.4638 20.0527 16.8585C20.0525 17.5493 20.1883 18.2333 20.4525 18.8716C20.7167 19.5098 21.104 20.0898 21.5924 20.5783C22.0807 21.0668 22.6605 21.4544 23.2987 21.7188C23.9369 21.9832 24.6209 22.1193 25.3116 22.1193H30.5705V16.8585C30.5705 15.4638 30.0164 14.1261 29.0302 13.1399C28.044 12.1537 26.7064 11.5996 25.3116 11.5996ZM28.6249 16.2336C28.5845 16.2406 28.5433 16.2396 28.5034 16.2305C28.4635 16.2215 28.4258 16.2047 28.3924 16.1811C28.359 16.1574 28.3306 16.1274 28.3089 16.0928C28.2871 16.0581 28.2724 16.0195 28.2657 15.9792C28.2451 15.8576 27.7231 13.0963 24.6475 13.5846C23.1826 13.8184 22.5653 14.6902 22.3033 15.3824C21.9049 16.4413 22.1163 17.5413 22.3445 17.8145C22.3939 17.8786 22.4166 17.9594 22.4076 18.0399C22.3986 18.1203 22.3588 18.1942 22.2964 18.2458C22.2341 18.2975 22.1542 18.3229 22.0734 18.3168C21.9927 18.3107 21.9175 18.2734 21.8637 18.213C21.4428 17.706 21.28 16.3291 21.7196 15.1654C22.0377 14.3142 22.7879 13.2403 24.5483 12.9672C28.2395 12.3816 28.8718 15.837 28.8793 15.8726C28.8934 15.9542 28.8745 16.0381 28.8268 16.1058C28.7791 16.1735 28.7065 16.2195 28.6249 16.2336Z" fill="#FFA300"/>
<path d="M37.4184 17.4829C36.5268 17.4837 35.6441 17.66 34.8207 18.0019C33.9973 18.3437 33.2492 18.8444 32.6193 19.4754C31.9894 20.1064 31.4899 20.8552 31.1494 21.6792C30.8089 22.5032 30.634 23.3862 30.6348 24.2777V31.067H37.4184C38.3106 31.068 39.1942 30.8931 40.0188 30.5523C40.8434 30.2116 41.5927 29.7116 42.2239 29.0811C42.8552 28.4506 43.3559 27.7018 43.6976 26.8776C44.0392 26.0534 44.2151 25.17 44.2151 24.2777C44.2158 23.3851 44.0405 22.501 43.6992 21.6762C43.3579 20.8513 42.8572 20.1019 42.2259 19.4708C41.5946 18.8396 40.845 18.3392 40.0201 17.9981C39.1952 17.657 38.3111 17.4819 37.4184 17.4829ZM42.0954 26.1654C42.0541 26.2262 41.9927 26.2705 41.922 26.2905C41.8513 26.3105 41.7758 26.305 41.7088 26.2748C41.6417 26.2446 41.5875 26.1918 41.5556 26.1256C41.5236 26.0594 41.5161 25.9841 41.5342 25.9128C41.5342 25.896 42.2937 24.1505 41.6352 22.493C41.2274 21.4715 40.3799 20.6951 39.1133 20.1619C37.5905 19.5184 36.0658 19.6213 34.8104 20.4538C33.716 21.1834 32.9565 22.4181 32.9639 23.4583C32.9642 23.4994 32.9564 23.54 32.9409 23.578C32.9254 23.616 32.9026 23.6506 32.8738 23.6798C32.8449 23.709 32.8106 23.7322 32.7728 23.7481C32.735 23.7641 32.6944 23.7724 32.6534 23.7726C32.5708 23.7726 32.4917 23.74 32.4331 23.6818C32.3746 23.6236 32.3415 23.5446 32.341 23.4621C32.341 22.2049 33.1866 20.7887 34.4643 19.9356C35.8918 18.9833 37.626 18.8598 39.3472 19.5895C40.7859 20.19 41.7456 21.0973 42.2096 22.2685C42.9635 24.173 42.1329 26.085 42.0954 26.1654Z" fill="#FFCE00"/>
<path d="M38.5539 45.4219H23.6733V47.6033H38.5539V45.4219Z" fill="#604A9E"/>
<path d="M48.688 41.746C48.572 38.6947 45.9678 36.3206 42.9128 36.3206H29.6131C27.3519 36.3206 25.1603 35.5381 23.4105 34.1058C21.6607 32.6735 20.4606 30.6798 20.0139 28.4631L19.2899 24.8393C18.8935 22.8978 17.901 21.1283 16.4508 19.7778C15.0007 18.4273 13.1652 17.563 11.2004 17.3055C10.9131 17.2713 10.624 17.3526 10.3967 17.5315C10.1693 17.7104 10.0224 17.9724 9.98814 18.2596C9.9539 18.5469 10.0352 18.836 10.2141 19.0634C10.3931 19.2907 10.655 19.4377 10.9423 19.4719C12.4511 19.6743 13.8594 20.3415 14.9718 21.3808C16.0842 22.4201 16.8453 23.7799 17.1497 25.2715L17.8737 28.8803C18.4183 31.5926 19.8853 34.0326 22.0255 35.7856C24.1656 37.5386 26.8467 38.4965 29.6131 38.4963H43.0512C43.5333 38.497 44.01 38.5984 44.4507 38.7939C44.8913 38.9894 45.2863 39.2748 45.6104 39.6317C45.9344 39.9887 46.1803 40.4094 46.3324 40.8669C46.4845 41.3244 46.5394 41.8086 46.4935 42.2885C46.3289 44.034 44.8285 45.3417 43.0849 45.4072V47.5942C43.84 47.5889 44.5865 47.4322 45.28 47.1333C45.9735 46.8345 46.6 46.3995 47.1224 45.8542C47.6449 45.309 48.0526 44.6644 48.3215 43.9587C48.5904 43.2531 48.7151 42.5006 48.688 41.746Z" fill="#604A9E"/>
<path d="M21.4338 43.0308C20.7452 43.0308 20.072 43.235 19.4995 43.6175C18.9269 44.0001 18.4807 44.5438 18.2172 45.18C17.9537 45.8162 17.8847 46.5162 18.019 47.1916C18.1534 47.867 18.485 48.4873 18.9719 48.9742C19.4588 49.4611 20.0792 49.7927 20.7545 49.9271C21.4299 50.0614 22.1299 49.9925 22.7661 49.7289C23.4023 49.4654 23.946 49.0192 24.3286 48.4466C24.7112 47.8741 24.9154 47.201 24.9154 46.5124C24.9154 45.589 24.5486 44.7034 23.8956 44.0505C23.2427 43.3976 22.3571 43.0308 21.4338 43.0308ZM21.4338 48.2298C21.0941 48.2298 20.762 48.1291 20.4796 47.9403C20.1972 47.7516 19.9771 47.4834 19.8471 47.1696C19.7171 46.8558 19.6831 46.5105 19.7493 46.1773C19.8156 45.8442 19.9792 45.5382 20.2194 45.298C20.4595 45.0578 20.7656 44.8942 21.0987 44.8279C21.4319 44.7617 21.7772 44.7957 22.091 44.9257C22.4048 45.0557 22.673 45.2758 22.8617 45.5582C23.0505 45.8406 23.1512 46.1727 23.1512 46.5124C23.1497 46.9669 22.9681 47.4023 22.6462 47.7231C22.3243 48.044 21.8883 48.2242 21.4338 48.2242V48.2298Z" fill="#604A9E"/>
<path d="M40.9054 43.0308C40.2168 43.0308 39.5437 43.235 38.9712 43.6175C38.3986 44.0001 37.9524 44.5438 37.6889 45.18C37.4253 45.8162 37.3564 46.5162 37.4907 47.1916C37.6251 47.867 37.9567 48.4873 38.4436 48.9742C38.9305 49.4611 39.5508 49.7927 40.2262 49.9271C40.9016 50.0614 41.6016 49.9925 42.2378 49.7289C42.874 49.4654 43.4177 49.0192 43.8003 48.4466C44.1829 47.8741 44.387 47.201 44.387 46.5124C44.387 45.589 44.0202 44.7034 43.3673 44.0505C42.7144 43.3976 41.8288 43.0308 40.9054 43.0308ZM40.9054 48.2298C40.5658 48.2298 40.2337 48.1291 39.9513 47.9403C39.6689 47.7516 39.4487 47.4834 39.3187 47.1696C39.1888 46.8558 39.1548 46.5105 39.221 46.1773C39.2873 45.8442 39.4509 45.5382 39.691 45.298C39.9312 45.0578 40.2372 44.8942 40.5704 44.8279C40.9035 44.7617 41.2488 44.7957 41.5627 44.9257C41.8765 45.0557 42.1447 45.2758 42.3334 45.5582C42.5221 45.8406 42.6229 46.1727 42.6229 46.5124C42.6214 46.9669 42.4398 47.4023 42.1179 47.7231C41.7959 48.044 41.36 48.2242 40.9054 48.2242V48.2298Z" fill="#604A9E"/>
<path d="M39.6781 14.1905C39.5965 14.3924 39.5974 14.6183 39.6807 14.8195C39.764 15.0206 39.9229 15.1811 40.1233 15.2663C43.9325 16.8967 47.1677 19.6279 49.414 23.1095C51.6603 26.5911 52.8153 30.6645 52.7308 34.807C52.4951 45.9796 43.3243 55.0362 32.1405 55.1279C28.4161 55.1585 24.7519 54.1868 21.5321 52.3147C18.3122 50.4425 15.6551 47.7388 13.8392 44.4869C12.0233 41.235 11.1154 37.5546 11.2107 33.8312C11.306 30.1079 12.4009 26.4787 14.3808 23.3239C14.4893 23.153 14.5315 22.9483 14.4995 22.7484C14.4674 22.5485 14.3633 22.3672 14.2068 22.2388C14.1169 22.164 14.0121 22.1091 13.8994 22.0778C13.7866 22.0465 13.6686 22.0394 13.5529 22.0571C13.4373 22.0748 13.3267 22.1168 13.2285 22.1804C13.1303 22.2439 13.0467 22.3276 12.9833 22.4259C10.7512 25.962 9.55894 30.0548 9.54282 34.2364C9.47547 46.552 19.4825 56.6863 31.8056 56.7873C36.9875 56.8266 42.0231 55.07 46.0561 51.8161C50.0892 48.5622 52.8708 44.0119 53.9279 38.9388C54.9851 33.8658 54.2526 28.5832 51.8549 23.9892C49.4573 19.3952 45.5425 15.7734 40.7762 13.7397C40.6747 13.6957 40.5654 13.6725 40.4548 13.6714C40.3441 13.6704 40.2344 13.6915 40.1321 13.7335C40.0297 13.7755 39.9368 13.8376 39.8588 13.9161C39.7809 13.9946 39.7194 14.0879 39.6781 14.1905Z" fill="#86C11F"/>
</g>
<defs>
<clipPath id="clip0">
<path d="M0 24C0 10.7452 10.7452 0 24 0H40C53.2548 0 64 10.7452 64 24V40C64 53.2548 53.2548 64 40 64H24C10.7452 64 0 53.2548 0 40V24Z" fill="white"/>
</clipPath>
</defs>
</svg>
