<svg width="20" height="20" viewBox="0 0 20 20" fill="none" xmlns="http://www.w3.org/2000/svg">
<g opacity="0.4">
<path d="M9.992 2C5.576 2 2 5.584 2 10C2 14.416 5.576 18 9.992 18C14.416 18 18 14.416 18 10C18 5.584 14.416 2 9.992 2ZM10 16.4C6.464 16.4 3.6 13.536 3.6 10C3.6 6.464 6.464 3.6 10 3.6C13.536 3.6 16.4 6.464 16.4 10C16.4 13.536 13.536 16.4 10 16.4Z" fill="black"/>
<path d="M12.6219 8.0017L12.3611 8.89148H11.5518C11.5032 9.24176 11.3792 9.55881 11.1798 9.84261C10.9804 10.1239 10.6927 10.3476 10.3169 10.5138C9.94359 10.68 9.4693 10.7631 8.89402 10.7631L11.4866 13.9386V14H10.29L7.48265 10.5636L7.46731 9.91932H8.86333C9.32868 9.91932 9.70581 9.83494 9.99473 9.66619C10.2836 9.49489 10.4665 9.23665 10.5432 8.89148H7.39061L7.6514 8.0017H10.5163C10.4345 7.70767 10.2709 7.475 10.0254 7.30369C9.78251 7.12983 9.45396 7.03139 9.03975 7.00838L8.44913 7.00454H7.39061L7.6514 6.14545H12.6219L12.3611 7.03523L11.1108 7.02372C11.3281 7.2973 11.47 7.6233 11.5365 8.0017H12.6219Z" fill="black"/>
</g>
</svg>
