<svg width="24" height="24" viewBox="0 0 24 24" fill="none" xmlns="http://www.w3.org/2000/svg">
<path d="M6 3H8.5C8.5 2.20435 8.81607 1.44129 9.37868 0.87868C9.94129 0.316071 10.7044 0 11.5 0C12.2956 0 13.0587 0.316071 13.6213 0.87868C14.1839 1.44129 14.5 2.20435 14.5 3H17C17.7956 3 18.5587 3.31607 19.1213 3.87868C19.6839 4.44129 20 5.20435 20 6V17C20 17.7956 19.6839 18.5587 19.1213 19.1213C18.5587 19.6839 17.7956 20 17 20H6C5.20435 20 4.44129 19.6839 3.87868 19.1213C3.31607 18.5587 3 17.7956 3 17V6C3 5.20435 3.31607 4.44129 3.87868 3.87868C4.44129 3.31607 5.20435 3 6 3ZM6 4C5.46957 4 4.96086 4.21071 4.58579 4.58579C4.21071 4.96086 4 5.46957 4 6V17C4 17.5304 4.21071 18.0391 4.58579 18.4142C4.96086 18.7893 5.46957 19 6 19H17C17.5304 19 18.0391 18.7893 18.4142 18.4142C18.7893 18.0391 19 17.5304 19 17V6C19 5.46957 18.7893 4.96086 18.4142 4.58579C18.0391 4.21071 17.5304 4 17 4H16V7H7V4H6ZM8 6H15V4H8V6ZM11.5 1C10.9696 1 10.4609 1.21071 10.0858 1.58579C9.71071 1.96086 9.5 2.46957 9.5 3H13.5C13.5 2.46957 13.2893 1.96086 12.9142 1.58579C12.5391 1.21071 12.0304 1 11.5 1ZM6 9H17V10H6V9ZM6 12H17V13H6V12ZM6 15H15V16H6V15Z" fill="#555555"/>
</svg>
