<svg width="17" height="17" viewBox="0 0 17 17" fill="none" xmlns="http://www.w3.org/2000/svg">
<g opacity="0.8" clip-path="url(#clip0)">
<path d="M15.1028 10.7577C14.1232 10.7621 13.1607 10.6133 12.2479 10.3163C11.8006 10.166 11.2522 10.3082 10.9809 10.5894L9.18805 11.9557C7.09661 10.8515 5.8056 9.57266 4.69766 7.50698L6.00778 5.74882C6.34867 5.40526 6.46922 4.90512 6.31992 4.43705C6.01324 3.52219 5.85519 2.56152 5.85072 1.58153C5.84753 0.873581 5.26895 0.300257 4.56104 0.303487L1.62274 0.316895C0.914827 0.320126 0.341503 0.898706 0.344733 1.60662C0.381761 9.72111 7.0134 16.2925 15.1279 16.2554C15.8358 16.2522 16.4091 15.6736 16.4059 14.9657L16.3925 12.0356C16.3893 11.3278 15.8107 10.7544 15.1028 10.7577Z" fill="#4C2882"/>
</g>
<defs>
<clipPath id="clip0">
<rect width="16" height="16" fill="white" transform="translate(0.338875 0.322754) rotate(-0.261448)"/>
</clipPath>
</defs>
</svg>
