<svg width="24" height="24" viewBox="0 0 24 24" fill="none" xmlns="http://www.w3.org/2000/svg">
<path d="M15.1319 14.1359L15.2419 13.9959C16.2573 12.6823 16.7587 11.0433 16.6519 9.38637C16.5451 7.72944 15.8376 6.16838 14.6619 4.99593C14.027 4.36222 13.2735 3.85979 12.4444 3.51733C11.6153 3.17486 10.7269 2.99908 9.82983 3C8.93279 3.00093 8.04472 3.17856 7.21634 3.52274C6.38795 3.86692 5.63548 4.37091 5.0019 5.00593C4.36754 5.64017 3.86433 6.39316 3.521 7.2219C3.17768 8.05064 3.00098 8.93889 3.00098 9.83593C3.00098 10.733 3.17768 11.6212 3.521 12.45C3.86433 13.2787 4.36754 14.0317 5.0019 14.6659C6.17526 15.8392 7.73511 16.5459 9.39088 16.6545C11.0466 16.763 12.6854 16.266 14.0019 15.2559L14.1419 15.1459L14.2619 15.2659L19.5119 20.5159L20.4519 19.4359L15.1319 14.1359ZM13.6819 13.6859C13.0484 14.3207 12.268 14.7893 11.41 15.0502C10.552 15.3111 9.64288 15.3562 8.76325 15.1816C7.88362 15.007 7.06067 14.618 6.36738 14.0491C5.6741 13.4803 5.1319 12.7491 4.78888 11.9205C4.44586 11.0919 4.31261 10.1915 4.40095 9.29906C4.48929 8.40662 4.79649 7.54978 5.29531 6.80451C5.79413 6.05924 6.46915 5.44858 7.2605 5.02669C8.05186 4.60479 8.9351 4.3847 9.8319 4.38593C10.9109 4.3826 11.9664 4.70021 12.8644 5.29836C13.7624 5.89651 14.4623 6.74819 14.875 7.74511C15.2877 8.74203 15.3946 9.83916 15.1822 10.897C14.9697 11.9549 14.4475 12.9256 13.6819 13.6859Z" fill="#555555"/>
</svg>
