<svg width="24" height="24" viewBox="0 0 24 24" fill="none" xmlns="http://www.w3.org/2000/svg">
<path d="M19 17.7499C18.2021 15.8726 16.7073 14.3778 14.83 13.5799L14.54 13.4299L14.8 13.2399C15.6708 12.6065 16.3187 11.7138 16.651 10.6896C16.9834 9.66538 16.983 8.56227 16.65 7.53829C16.3169 6.51431 15.6683 5.62201 14.7971 4.98922C13.9259 4.35643 12.8768 4.01563 11.8 4.01562C10.7232 4.01562 9.67408 4.35643 8.80287 4.98922C7.93165 5.62201 7.28308 6.51431 6.95005 7.53829C6.61702 8.56227 6.61664 9.66538 6.94895 10.6896C7.28127 11.7138 7.92923 12.6065 8.8 13.2399L9.06 13.4299L8.6 13.6699C7.72371 14.0661 6.92466 14.6146 6.24 15.2899C5.54753 16.0007 4.99463 16.8352 4.61 17.7499C4.22918 18.6531 4.02222 19.62 4 20.5999H5.22C5.27382 18.9173 5.96768 17.3185 7.16 16.1299C8.07218 15.2181 9.23122 14.593 10.4943 14.3317C11.7573 14.0705 13.0692 14.1845 14.2683 14.6596C15.4674 15.1348 16.5013 15.9504 17.2425 17.0059C17.9838 18.0614 18.4 19.3108 18.44 20.5999H19.66C19.622 19.6168 19.398 18.6497 19 17.7499ZM9 11.8399C8.37116 11.2014 7.98207 10.3654 7.89851 9.47307C7.81496 8.58078 8.04206 7.68701 8.54142 6.94284C9.04078 6.19867 9.78178 5.64974 10.6392 5.38886C11.4965 5.12797 12.4177 5.17112 13.2469 5.51102C14.0762 5.85092 14.7626 6.46671 15.1902 7.2543C15.6178 8.0419 15.7604 8.95298 15.5938 9.83355C15.4272 10.7141 14.9616 11.5102 14.2758 12.0871C13.59 12.664 12.7261 12.9865 11.83 12.9999C11.3194 12.9964 10.8146 12.8921 10.3444 12.693C9.8742 12.494 9.35792 12.2041 9 11.8399Z" fill="#555555"/>
</svg>
